<svg xmlns="http://www.w3.org/2000/svg" width="1020" height="600" viewBox="0 0 1020 600" font-family="Arial, sans-serif">
<rect x="0" y="0" width="1020" height="600" fill="#fff" stroke="none"/>
<rect x="180" y="55" width="620" height="470" stroke="#000" stroke-width="1.5" stroke-dasharray="8 5" fill="none" data-grab="boundary"/>
<text x="490" y="80" font-size="15" font-weight="bold" fill="#000" text-anchor="middle" data-grab="boundary">Sistema de Reservas de Restaurante</text>
<ellipse cx="330" cy="140" rx="122" ry="26" fill="#fff" stroke="#000" stroke-width="1.5" data-grab="UC01"/>
<text x="330" y="144" font-size="12.5" fill="#000" text-anchor="middle" pointer-events="none">UC01 Consultar Disponibilidade</text>
<ellipse cx="330" cy="258" rx="93" ry="26" fill="#fff" stroke="#000" stroke-width="1.5" data-grab="UC02"/>
<text x="330" y="262" font-size="12.5" fill="#000" text-anchor="middle" pointer-events="none">UC02 Realizar Reserva</text>
<ellipse cx="330" cy="376" rx="93" ry="26" fill="#fff" stroke="#000" stroke-width="1.5" data-grab="UC03"/>
<text x="330" y="380" font-size="12.5" fill="#000" text-anchor="middle" pointer-events="none">UC03 Cancelar Reserva</text>
<ellipse cx="620" cy="140" rx="96" ry="26" fill="#fff" stroke="#000" stroke-width="1.5" data-grab="UC04"/>
<text x="620" y="144" font-size="12.5" fill="#000" text-anchor="middle" pointer-events="none">UC04 Confirmar Reserva</text>
<ellipse cx="620" cy="258" rx="96" ry="26" fill="#fff" stroke="#000" stroke-width="1.5" data-grab="UC05"/>
<text x="620" y="262" font-size="12.5" fill="#000" text-anchor="middle" pointer-events="none">UC05 Reagendar Reserva</text>
<ellipse cx="497" cy="440" rx="90" ry="26" fill="#fff" stroke="#000" stroke-width="1.5" data-grab="UC06"/>
<text x="497" y="444" font-size="12.5" fill="#000" text-anchor="middle" pointer-events="none">UC06 Gerenciar Mesas</text>
<ellipse cx="650.1728481455564" cy="356.9902912621359" rx="90" ry="26" fill="#fff" stroke="#000" stroke-width="1.5" data-grab="UC07"/>
<text x="650.1728481455564" y="360.9902912621359" font-size="12.5" fill="#000" text-anchor="middle" pointer-events="none">UC07 Gerar Relatório</text>
<circle cx="80" cy="222" r="14" fill="#fff" stroke="#000" stroke-width="1.5" data-grab="A_cliente"/>
<line x1="80" y1="236" x2="80" y2="260" stroke="#000" stroke-width="1.5" data-grab="A_cliente"/>
<line x1="68" y1="246" x2="92" y2="246" stroke="#000" stroke-width="1.5" data-grab="A_cliente"/>
<line x1="80" y1="260" x2="65" y2="280" stroke="#000" stroke-width="1.5" data-grab="A_cliente"/>
<line x1="80" y1="260" x2="95" y2="280" stroke="#000" stroke-width="1.5" data-grab="A_cliente"/>
<text x="80" y="300" font-size="13" font-weight="bold" fill="#000" text-anchor="middle" pointer-events="none">Cliente</text>
<circle cx="946.4170748775367" cy="146" r="14" fill="#fff" stroke="#000" stroke-width="1.5" data-grab="A_func"/>
<line x1="946.4170748775367" y1="160" x2="946.4170748775367" y2="184" stroke="#000" stroke-width="1.5" data-grab="A_func"/>
<line x1="934.4170748775367" y1="170" x2="958.4170748775367" y2="170" stroke="#000" stroke-width="1.5" data-grab="A_func"/>
<line x1="946.4170748775367" y1="184" x2="931.4170748775367" y2="204" stroke="#000" stroke-width="1.5" data-grab="A_func"/>
<line x1="946.4170748775367" y1="184" x2="961.4170748775367" y2="204" stroke="#000" stroke-width="1.5" data-grab="A_func"/>
<text x="946.4170748775367" y="224" font-size="13" font-weight="bold" fill="#000" text-anchor="middle" pointer-events="none">Funcionário</text>
<circle cx="933.5689293212037" cy="444.7378640776699" r="14" fill="#fff" stroke="#000" stroke-width="1.5" data-grab="A_gerente"/>
<line x1="933.5689293212037" y1="458.7378640776699" x2="933.5689293212037" y2="482.7378640776699" stroke="#000" stroke-width="1.5" data-grab="A_gerente"/>
<line x1="921.5689293212037" y1="468.7378640776699" x2="945.5689293212037" y2="468.7378640776699" stroke="#000" stroke-width="1.5" data-grab="A_gerente"/>
<line x1="933.5689293212037" y1="482.7378640776699" x2="918.5689293212037" y2="502.7378640776699" stroke="#000" stroke-width="1.5" data-grab="A_gerente"/>
<line x1="933.5689293212037" y1="482.7378640776699" x2="948.5689293212037" y2="502.7378640776699" stroke="#000" stroke-width="1.5" data-grab="A_gerente"/>
<text x="933.5689293212037" y="522.7378640776699" font-size="13" font-weight="bold" fill="#000" text-anchor="middle" pointer-events="none">Gerente</text>
<polygon points="945,259.0485436893204 935,273.0485436893204 955,273.0485436893204" fill="#fff" stroke="#000" stroke-width="1.5" data-grab="EX1"/>
<line x1="945" y1="273.0485436893204" x2="945" y2="436" stroke="#000" stroke-width="1.5" stroke-dasharray="6 4" data-grab="EX1"/>
<line x1="945" y1="273.0485436893204" x2="945" y2="436" stroke="transparent" stroke-width="12" data-grab="EX1"/>
<text x="972" y="310" font-size="12" font-style="italic" fill="#000" text-anchor="middle" pointer-events="none">«extends»</text>
<line x1="98" y1="200" x2="252.4" y2="160.1" stroke="#000" stroke-width="1.5" data-grab="L1"/>
<line x1="98" y1="200" x2="252.41486490290856" y2="160.0651211457995" stroke="transparent" stroke-width="12" data-grab="L1"/>
<line x1="98" y1="258" x2="237" y2="258" stroke="#000" stroke-width="1.5" data-grab="L2"/>
<line x1="98" y1="258" x2="237" y2="258" stroke="transparent" stroke-width="12" data-grab="L2"/>
<line x1="98" y1="320" x2="259.6" y2="359" stroke="#000" stroke-width="1.5" data-grab="L3"/>
<line x1="98" y1="320" x2="259.60706413338585" y2="359.008601687369" stroke="transparent" stroke-width="12" data-grab="L3"/>
<line x1="928.4" y1="158" x2="713.6" y2="145.8" stroke="#000" stroke-width="1.5" data-grab="L4"/>
<line x1="928.4170748775367" y1="158" x2="713.6059669338284" y2="145.77023083838668" stroke="transparent" stroke-width="12" data-grab="L4"/>
<line x1="928.4" y1="225" x2="708.6" y2="248" stroke="#000" stroke-width="1.5" data-grab="L5"/>
<line x1="928.4170748775367" y1="225" x2="708.5960381229025" y2="247.98743404775416" stroke="transparent" stroke-width="12" data-grab="L5"/>
<line x1="915.6" y1="463.7" x2="721.9" y2="381.3" stroke="#000" stroke-width="1.5" data-grab="L6"/>
<line x1="915.5689293212037" y1="463.7378640776699" x2="721.9230492170417" y2="381.3346419602869" stroke="transparent" stroke-width="12" data-grab="L6"/>
<line x1="915.6" y1="490.7" x2="598.8" y2="448.6" stroke="#000" stroke-width="1.5" data-grab="L7"/>
<line x1="915.5689293212037" y1="490.7378640776699" x2="598.8143791530144" y2="448.55479571570316" stroke="transparent" stroke-width="12" data-grab="L7"/>
</svg>